<?xml version="1.0" encoding="UTF-8"?> <svg xmlns="http://www.w3.org/2000/svg" width="200" height="52" viewBox="0 0 200 52" fill="none"><path d="M16.9079 48.417L16.015 33.8395H18.6978L19.1136 42.5696L19.24 45.3255H19.4276L20.6752 37.013H23.4803L24.7279 45.3255H24.9154L25.0418 42.6515L25.4577 33.8395H28.0344L27.1415 48.417H23.1908L22.1307 40.3789H21.9228L20.8627 48.417H16.912H16.9079Z" fill="#0E1E30"></path><path d="M35.5363 48.6668C33.5956 48.6668 32.1645 48.0035 31.2431 46.6808C30.3217 45.3582 29.861 43.5074 29.861 41.1242C29.861 38.741 30.3217 36.8901 31.2431 35.5675C32.1645 34.2449 33.5956 33.5856 35.5363 33.5856C37.4771 33.5856 38.9081 34.249 39.8296 35.5675C40.751 36.8901 41.2117 38.741 41.2117 41.1242C41.2117 43.5074 40.751 45.3582 39.8296 46.6808C38.9081 48.0035 37.4771 48.6668 35.5363 48.6668ZM35.5363 46.1403C36.4252 46.1403 37.0367 45.8086 37.3751 45.1494C37.7135 44.4901 37.8848 43.5647 37.8848 42.3813V39.8548C37.8848 38.6837 37.7135 37.7705 37.3751 37.1072C37.0367 36.4438 36.4211 36.1162 35.5363 36.1162C34.6516 36.1162 34.036 36.4479 33.6976 37.1072C33.3591 37.7664 33.1879 38.6837 33.1879 39.8548V42.4018C33.1879 43.5729 33.3591 44.486 33.6976 45.1494C34.036 45.8127 34.6516 46.1403 35.5363 46.1403Z" fill="#0E1E30"></path><path d="M47.4742 48.417H44.396V33.8395H50.0102C50.7156 33.8395 51.3475 33.946 51.902 34.163C52.4565 34.38 52.9254 34.6871 53.3046 35.0925C53.6837 35.4979 53.9732 35.9852 54.1689 36.5544C54.3646 37.1235 54.4584 37.7664 54.4584 38.4748C54.4584 39.5067 54.2382 40.3912 53.7938 41.1283C53.3494 41.8653 52.7215 42.3526 51.902 42.5901L54.7519 48.417H51.3434L48.9094 43.0078H47.4742V48.417ZM49.2641 40.5878C49.998 40.5878 50.5076 40.4485 50.793 40.1701C51.0784 39.8916 51.2171 39.433 51.2171 38.7901V38.1636C51.2171 37.5248 51.0744 37.0621 50.793 36.7837C50.5076 36.5052 49.998 36.366 49.2641 36.366H47.4742V40.5837H49.2641V40.5878Z" fill="#0E1E30"></path><path d="M62.1519 42.3362L60.8635 44.1543V48.4129H57.7445V33.8354H60.8635V39.9326H61.0307L62.6126 37.5085L65.169 33.8313H68.6631L64.3169 39.9899L68.871 48.4048H65.3565L62.156 42.3281L62.1519 42.3362Z" fill="#0E1E30"></path><path d="M75.8552 48.6668C74.6362 48.6668 73.5761 48.4662 72.675 48.0649C71.774 47.6636 71.0442 47.119 70.4938 46.427L72.304 44.4246C72.83 45.0102 73.4089 45.4401 74.0409 45.7186C74.6728 45.997 75.313 46.1362 75.9653 46.1362C76.7155 46.1362 77.2822 45.9683 77.6695 45.6326C78.0569 45.2968 78.2526 44.8095 78.2526 44.1789C78.2526 43.6589 78.1017 43.2658 77.8041 42.9996C77.5065 42.7334 77.005 42.5451 76.2955 42.4304L74.7789 42.1806C73.4742 41.9595 72.5323 41.4763 71.9493 40.7311C71.3663 39.9858 71.0768 39.0809 71.0768 38.008C71.0768 36.6035 71.5334 35.5143 72.4508 34.7445C73.3682 33.9746 74.6484 33.5856 76.2955 33.5856C77.4168 33.5856 78.3953 33.7576 79.227 34.1016C80.0587 34.4455 80.7315 34.9164 81.2452 35.5102L79.4798 37.488C79.0925 37.058 78.6358 36.7182 78.1058 36.4766C77.5798 36.235 76.9846 36.1121 76.3159 36.1121C74.9175 36.1121 74.2162 36.6936 74.2162 37.8606C74.2162 38.3684 74.3711 38.7451 74.6851 38.999C74.999 39.2529 75.5046 39.4412 76.214 39.5682L77.7307 39.8384C78.909 40.0472 79.8182 40.4936 80.4542 41.1733C81.0903 41.8531 81.4124 42.7744 81.4124 43.925C81.4124 44.6048 81.2941 45.2354 81.0576 45.8127C80.8212 46.3901 80.4665 46.8897 79.9976 47.3155C79.5246 47.7414 78.9457 48.069 78.2607 48.3065C77.5758 48.544 76.7726 48.6627 75.8593 48.6627L75.8552 48.6668Z" fill="#0E1E30"></path><path d="M91.4298 42.3158H87.7685V48.4129H84.6292V33.8354H87.7685V39.7442H91.4298V33.8354H94.5692V48.4129H91.4298V42.3158Z" fill="#0E1E30"></path><path d="M103.115 48.6668C101.174 48.6668 99.7432 48.0035 98.8217 46.6808C97.9003 45.3582 97.4396 43.5074 97.4396 41.1242C97.4396 38.741 97.9003 36.8901 98.8217 35.5675C99.7432 34.2449 101.174 33.5856 103.115 33.5856C105.056 33.5856 106.487 34.249 107.408 35.5675C108.33 36.8901 108.79 38.741 108.79 41.1242C108.79 43.5074 108.33 45.3582 107.408 46.6808C106.487 48.0035 105.056 48.6668 103.115 48.6668ZM103.115 46.1403C104.004 46.1403 104.615 45.8086 104.954 45.1494C105.292 44.4901 105.463 43.5647 105.463 42.3813V39.8548C105.463 38.6837 105.292 37.7705 104.954 37.1072C104.615 36.4438 104 36.1162 103.115 36.1162C102.23 36.1162 101.615 36.4479 101.276 37.1072C100.938 37.7664 100.767 38.6837 100.767 39.8548V42.4018C100.767 43.5729 100.938 44.486 101.276 45.1494C101.615 45.8127 102.23 46.1403 103.115 46.1403Z" fill="#0E1E30"></path><path d="M111.975 48.417V33.8395H117.589C118.294 33.8395 118.926 33.946 119.481 34.163C120.035 34.38 120.504 34.6871 120.883 35.0925C121.262 35.4979 121.552 35.9852 121.748 36.5544C121.943 37.1235 122.037 37.7664 122.037 38.4748C122.037 39.1832 121.939 39.8261 121.748 40.3953C121.552 40.9645 121.266 41.4518 120.883 41.8571C120.5 42.2625 120.035 42.5696 119.481 42.7867C118.926 43.0037 118.294 43.1102 117.589 43.1102H115.114V48.4129H111.975V48.417ZM115.114 40.5878H116.798C117.532 40.5878 118.041 40.4485 118.327 40.1701C118.612 39.8916 118.755 39.433 118.755 38.7901V38.1636C118.755 37.5248 118.612 37.0621 118.327 36.7837C118.041 36.5052 117.532 36.366 116.798 36.366H115.114V40.5837V40.5878Z" fill="#0E1E30"></path><path d="M133.265 48.417V33.8395H142.892V36.407H136.384V39.7483H142.207V42.3158H136.384V48.4129H133.265V48.417Z" fill="#0E1E30"></path><path d="M146.781 48.417V33.8395H156.057V36.407H149.9V39.7483H155.849V42.3158H149.9V45.8455H156.057V48.4129H146.781V48.417Z" fill="#0E1E30"></path><path d="M164.643 48.6668C163.424 48.6668 162.364 48.4662 161.463 48.0649C160.562 47.6636 159.832 47.119 159.282 46.427L161.092 44.4246C161.618 45.0102 162.197 45.4401 162.829 45.7186C163.461 45.997 164.101 46.1362 164.753 46.1362C165.503 46.1362 166.07 45.9683 166.457 45.6326C166.845 45.2968 167.04 44.8095 167.04 44.1789C167.04 43.6589 166.89 43.2658 166.592 42.9996C166.294 42.7334 165.793 42.5451 165.083 42.4304L163.567 42.1806C162.262 41.9595 161.32 41.4763 160.737 40.7311C160.154 39.9858 159.865 39.0809 159.865 38.008C159.865 36.6035 160.321 35.5143 161.239 34.7445C162.156 33.9746 163.436 33.5856 165.083 33.5856C166.205 33.5856 167.183 33.7576 168.015 34.1016C168.847 34.4455 169.519 34.9164 170.033 35.5102L168.268 37.488C167.88 37.058 167.424 36.7182 166.894 36.4766C166.368 36.235 165.772 36.1121 165.104 36.1121C163.705 36.1121 163.004 36.6936 163.004 37.8606C163.004 38.3684 163.159 38.7451 163.473 38.999C163.787 39.2529 164.292 39.4412 165.002 39.5682L166.519 39.8384C167.697 40.0472 168.606 40.4936 169.242 41.1733C169.878 41.8531 170.2 42.7744 170.2 43.925C170.2 44.6048 170.082 45.2354 169.845 45.8127C169.609 46.3901 169.254 46.8897 168.785 47.3155C168.312 47.7414 167.734 48.069 167.049 48.3065C166.364 48.544 165.56 48.6627 164.647 48.6627L164.643 48.6668Z" fill="#0E1E30"></path><path d="M179.945 36.407V48.417H176.826V36.407H172.646V33.8395H184.124V36.407H179.945Z" fill="#0E1E30"></path><path d="M73.2255 22.3781C76.1936 22.3781 79.1659 22.374 82.134 22.3699C82.1259 22.3781 82.1177 19.1064 82.1177 19.1064H75.0031C74.4119 20.1956 73.8166 21.2889 73.2255 22.3781Z" fill="#0E1E30"></path><path d="M72.0594 17.7346V15.72H74.8604L76.6543 12.3663H72.0594V10.3312C72.0594 9.61051 72.6424 9.02495 73.36 9.02495H78.4605L80.2545 5.75729H73.36C70.8363 5.75729 68.7896 7.8006 68.7896 10.3271V17.7264C68.7896 19.5527 69.87 21.1169 71.4152 21.8458L72.9972 18.9712C72.4549 18.8115 72.0553 18.3161 72.0553 17.7264" fill="#0E1E30"></path><path d="M82.1869 5.97433L80.5071 9.02906H80.8659C81.5917 9.02906 82.1747 9.61462 82.1747 10.3353V12.3704H78.652L76.8418 15.7241H85.4405V10.3394C85.4405 8.27562 84.0624 6.54351 82.1829 5.98252" fill="#0E1E30"></path><path d="M41.8437 5.7532H34.4274C31.8914 5.7532 29.8365 7.8047 29.8365 10.3312V17.7428C29.8365 20.2734 31.8873 22.3249 34.4274 22.3249H41.8437C44.3715 22.3249 46.4264 20.2734 46.4264 17.7428V10.3312C46.4264 7.8047 44.3715 5.7532 41.8437 5.7532ZM41.966 17.7387C41.966 17.8083 41.909 17.8616 41.8437 17.8616H34.4274C34.3581 17.8616 34.3051 17.8083 34.3051 17.7387V10.3271C34.3051 10.2616 34.3581 10.2043 34.4274 10.2043H41.8437C41.909 10.2043 41.966 10.2616 41.966 10.3271V17.7387Z" fill="#0E1E30"></path><path d="M22.5833 17.751C22.5833 17.8165 22.5344 17.8697 22.4692 17.8697H15.0528C14.9876 17.8697 14.9346 17.8165 14.9346 17.751V10.3394C14.9346 10.2739 14.9876 10.2247 15.0528 10.2247H22.4692C22.5344 10.2247 22.5833 10.278 22.5833 10.3394V11.5474H27.0519V10.3394C27.0519 7.81288 25.0011 5.76138 22.4692 5.76138H15.0528C12.525 5.76138 10.4661 7.80879 10.4661 10.3394V17.751C10.4661 20.2816 12.5209 22.329 15.0528 22.329H22.4692C25.0011 22.329 27.0519 20.2775 27.0519 17.751V16.584H22.5833V17.751Z" fill="#0E1E30"></path><path d="M65.9233 10.9086V10.3394C65.9233 7.81288 63.8684 5.76138 61.3365 5.76138H53.9161C53.8753 5.76138 53.8427 5.76548 53.8019 5.76548L49.3375 5.76138V10.2534C49.3375 10.2821 49.3334 10.3066 49.3334 10.3353V17.7469C49.3334 17.7756 49.3334 17.8042 49.3375 17.8329V22.3249H53.8019C53.8427 22.3208 53.8753 22.3249 53.9161 22.3249H61.3365C63.8684 22.3249 65.9233 20.2734 65.9233 17.7469V10.9045V10.9086ZM61.4547 17.751C61.4547 17.8165 61.4058 17.8697 61.3365 17.8697H53.9161C53.8508 17.8697 53.8101 17.8247 53.8019 17.7633V10.3312C53.8101 10.2698 53.8549 10.2247 53.9161 10.2247H61.3365C61.4058 10.2247 61.4547 10.278 61.4547 10.3394V10.9086V17.3374V17.751Z" fill="#0E1E30"></path><path d="M184.482 5.76959H177.135C174.599 5.76959 172.549 7.817 172.549 10.3476V22.3659H175.823V10.3476C175.823 9.6269 176.41 9.04135 177.135 9.04135H184.482C185.204 9.04135 185.791 9.62281 185.791 10.3476V22.3577H189.069V10.3476C189.069 7.817 187.014 5.76959 184.482 5.76959Z" fill="#0E1E30"></path><path d="M126.289 5.76138H118.865C116.333 5.76138 114.282 7.84155 114.282 10.368V17.7797C114.282 20.3062 116.333 22.3577 118.865 22.3577H126.289C128.817 22.3577 130.872 20.3062 130.872 17.7797V10.368C130.872 7.84155 128.817 5.76138 126.289 5.76138ZM127.598 17.7019V17.7633C127.598 18.484 127.015 19.0777 126.289 19.0777H118.865C118.147 19.0777 117.556 18.484 117.556 17.7633V10.3517C117.556 9.63507 118.143 9.04542 118.865 9.04542H126.289C127.011 9.04542 127.598 9.63098 127.598 10.3517V17.7019Z" fill="#0E1E30"></path><path d="M165.063 5.76138H157.643C155.115 5.76138 153.06 7.84155 153.06 10.368V17.7797C153.06 20.3062 155.115 22.3577 157.643 22.3577H165.063C167.599 22.3577 169.654 20.3062 169.654 17.7797V10.368C169.654 7.84155 167.599 5.76138 165.063 5.76138ZM166.372 17.7019V17.7633C166.372 18.484 165.785 19.0777 165.063 19.0777H157.643C156.925 19.0777 156.334 18.484 156.334 17.751V10.3394C156.334 9.63917 156.921 9.04952 157.643 9.04952H165.063C165.789 9.04952 166.372 9.63507 166.372 10.3558V17.7059V17.7019Z" fill="#0E1E30"></path><path d="M138.394 19.1023C137.673 19.1023 137.074 18.4266 137.074 17.706V12.3868H142.659V9.02496H137.074V5.7532C137.074 5.7532 137.078 5.7573 137.078 5.7532H133.8V17.7592C133.8 20.2898 135.85 22.3863 138.382 22.3863H144.062V19.1105H138.394V19.1023Z" fill="#0E1E30"></path><path d="M150.222 5.76138H146.871V22.3699H150.222V5.76138Z" fill="#0E1E30"></path><path d="M106.882 5.76138H102.781C101.676 5.76138 100.665 6.16677 99.8818 6.83013C99.0949 6.16677 98.0879 5.76138 96.9789 5.76138H92.8651C90.3658 5.76138 88.3435 7.84564 88.3435 10.3762V22.3454H91.5767V10.3762C91.5767 9.65145 92.1516 9.04952 92.8651 9.04952H96.9789C97.6761 9.04952 98.2387 9.62688 98.2673 10.3312C98.2673 10.3476 98.2673 10.3599 98.2673 10.3762V19.1146H101.505V10.3762C101.505 10.3762 101.496 10.3435 101.496 10.3312C101.525 9.63098 102.083 9.04952 102.785 9.04952H106.886C107.596 9.04952 108.175 9.65145 108.175 10.3762V22.3454H111.4V10.3762C111.4 7.84564 109.377 5.76138 106.886 5.76138" fill="#0E1E30"></path><path d="M5.03934 23.3732C5.03934 24.1962 5.74061 24.8964 6.56419 24.8964H7.69764V28.0986H6.56419C3.95075 28.0986 1.83471 25.9939 1.83471 23.3732V17.0139C1.36584 16.7437 0.587108 16.2277 0 15.8797V12.137L1.83471 11.1625V4.76226C1.83471 2.10883 3.94667 0 6.56012 0H7.69356V3.24309H6.56012C5.74061 3.24309 5.03527 3.9433 5.03527 4.76226V12.3418L1.75317 14.0534L5.03527 15.9083V23.3732H5.03934Z" fill="#FF5C00"></path><path d="M194.961 4.72541C194.961 3.90235 194.259 3.20214 193.436 3.20214H192.302V0H193.436C196.049 0 198.165 2.10473 198.165 4.72541V11.0847C198.634 11.3549 199.413 11.8709 200 12.2189V15.9616L198.165 16.9361V23.3363C198.165 25.9898 196.053 28.0986 193.436 28.0986H192.302V24.8555H193.436C194.255 24.8555 194.961 24.1553 194.961 23.3363V15.7568L198.243 14.0452L194.961 12.1903V4.72541Z" fill="#FF5C00"></path></svg>
